<svg width="38" height="39" viewBox="0 0 38 39" fill="none" xmlns="http://www.w3.org/2000/svg">
<path id="Vector" d="M29.7469 0H8.25313C3.69576 0 0 3.7979 0 8.48121V30.5188C0 35.2021 3.69576 39 8.25313 39H15.9956V24.9921H11.2456V19.5251H15.9956V15.2296C15.9956 10.3483 19.0356 7.61478 23.4056 7.61478C24.7356 7.61478 26.2556 7.81003 27.5856 8.00529V12.9842H25.1156C22.8356 12.9842 22.2656 14.1557 22.2656 15.7177V19.5251H27.3006L26.4456 24.9921H22.2656V39H29.7469C34.3042 39 38 35.2021 38 30.5188V8.48121C38 3.7979 34.3042 0 29.7469 0Z" fill="#939393"/>
</svg>
