<svg width="38" height="39" viewBox="0 0 38 39" fill="none" xmlns="http://www.w3.org/2000/svg">
<g id="Group">
<path id="Vector" d="M29.9342 11.0221C29.6796 10.3496 29.3748 9.86827 28.884 9.36387C28.3931 8.85947 27.926 8.54626 27.2716 8.28592C26.7768 8.08796 26.034 7.85339 24.6657 7.78966C23.1866 7.72051 22.7419 7.70695 18.996 7.70695C18.5276 7.70695 18.1107 7.70695 17.7373 7.70695V7.70288C15.1222 7.70559 14.6208 7.72458 13.3264 7.78424C11.9581 7.84932 11.2153 8.08254 10.7205 8.28185C10.066 8.54354 9.59764 8.85676 9.10681 9.36116C8.61598 9.86556 8.31119 10.3469 8.05653 11.0194C7.8639 11.5279 7.63563 12.2913 7.57362 13.6974C7.50633 15.2173 7.49313 15.6716 7.49313 19.5223C7.49313 23.3731 7.50633 23.8301 7.57362 25.35C7.63563 26.7561 7.86522 27.5195 8.05653 28.0266C8.31119 28.7005 8.61598 29.1791 9.10681 29.6835C9.59764 30.1879 10.066 30.5011 10.7205 30.7615C11.2153 30.9594 11.9581 31.194 13.3264 31.2591C14.8055 31.3282 15.2501 31.3431 18.996 31.3431C22.7419 31.3431 23.1866 31.3282 24.6657 31.2591C26.034 31.1954 26.7768 30.9608 27.2716 30.7628C27.9274 30.5011 28.3931 30.1893 28.884 29.6849C29.3748 29.1805 29.6796 28.7018 29.9342 28.028C30.1269 27.5208 30.3551 26.7575 30.4172 25.3514C30.4845 23.8314 30.499 23.3745 30.499 19.5264C30.499 15.6783 30.4845 15.2214 30.4172 13.7014C30.3551 12.2953 30.1256 11.532 29.9342 11.0249V11.0221ZM18.996 26.9297C15.0166 26.9297 11.7906 23.6158 11.7906 19.5264C11.7906 15.437 15.0166 12.1218 18.996 12.1218C22.9755 12.1218 26.2015 15.437 26.2015 19.5264C26.2015 23.6158 22.9768 26.9297 18.9974 26.9297H18.996ZM26.4865 13.5604C25.5563 13.5604 24.8029 12.7848 24.8029 11.8303C24.8029 10.8757 25.5576 10.1001 26.4865 10.1001C27.4167 10.1001 28.1701 10.8744 28.1701 11.8303C28.1701 12.7862 27.4154 13.5604 26.4865 13.5604Z" fill="#939393"/>
<path id="Vector_2" d="M20.7856 23.9677C23.1723 22.9518 24.3056 20.1401 23.317 17.6875C22.3285 15.2349 19.5923 14.0702 17.2057 15.0861C14.8191 16.102 13.6857 18.9138 14.6743 21.3663C15.6629 23.8189 18.399 24.9836 20.7856 23.9677Z" fill="#939393"/>
<path id="Vector_3" d="M29.7469 0H8.25445C3.69577 0 0.00132751 3.7979 0.00132751 8.48121V30.5174C0.00132751 35.2021 3.69709 38.9986 8.25445 38.9986H29.7469C34.3056 38.9986 38 35.2007 38 30.5174V8.48121C38 3.79654 34.3042 0 29.7469 0ZM32.9426 25.4707C32.8726 27.0056 32.6351 28.0537 32.2908 28.9703C31.9306 29.9181 31.4516 30.7235 30.6718 31.5249C29.892 32.3276 29.1109 32.8211 28.1873 33.1886C27.294 33.5452 26.2741 33.7879 24.7805 33.8584C23.2842 33.9289 22.8066 33.9452 18.996 33.9452C15.1855 33.9452 14.7079 33.9275 13.2103 33.8584C11.7167 33.7879 10.6967 33.5452 9.80348 33.1886C8.88118 32.8198 8.09876 32.3262 7.31896 31.5249C6.53917 30.7235 6.0589 29.9195 5.70001 28.9703C5.35299 28.0537 5.11681 27.0056 5.0482 25.4707C4.98091 23.9331 4.96376 23.4423 4.96376 19.5264C4.96376 15.6106 4.98091 15.1184 5.0482 13.5808C5.11549 12.0459 5.35167 10.9978 5.70001 10.0812C6.06022 9.1334 6.53917 8.32799 7.31896 7.52665C8.09876 6.72531 8.88119 6.23176 9.8048 5.8643C10.6967 5.5077 11.7167 5.26499 13.2103 5.19449C14.7065 5.12398 15.1855 5.10771 18.9934 5.10771H18.9908H18.9947H18.9921C22.8026 5.10771 23.279 5.12533 24.7752 5.19449C26.2688 5.26499 27.2888 5.5077 28.1833 5.8643C29.1069 6.23176 29.8881 6.72531 30.6679 7.52665C31.449 8.32799 31.9279 9.13204 32.2868 10.0812C32.6312 10.9978 32.8687 12.0459 32.9386 13.5808C33.0059 15.1184 33.0231 15.6106 33.0231 19.5264C33.0231 23.4423 33.0059 23.9331 32.9386 25.4707H32.9426Z" fill="#939393"/>
</g>
</svg>
