<svg width="38" height="39" viewBox="0 0 38 39" fill="none" xmlns="http://www.w3.org/2000/svg">
<path id="Vector" d="M29.7469 0H8.25446C3.69578 0 0.00132751 3.7979 0.00132751 8.48121V30.5174C0.00132751 35.2021 3.6971 38.9986 8.25446 38.9986H29.7469C34.3056 38.9986 38 35.2007 38 30.5174V8.48121C38 3.79654 34.3042 0 29.7469 0ZM12.251 32.2706H7.12897V15.277H12.251V32.2706ZM9.66626 13.052C7.9932 13.052 6.63682 11.6473 6.63682 9.91576C6.63682 8.18426 7.9932 6.77954 9.66626 6.77954C11.3393 6.77954 12.6944 8.18426 12.6944 9.91576C12.6944 11.6473 11.3393 13.052 9.66626 13.052ZM31.4424 32.2706H26.3454V23.3501C26.3454 20.904 25.4415 19.5373 23.5574 19.5373C21.5083 19.5373 20.4369 20.9596 20.4369 23.3501V32.2706H15.5246V15.277H20.4369V17.5658C20.4369 17.5658 21.9133 14.7577 25.4231 14.7577C28.9328 14.7577 31.4424 16.9583 31.4424 21.5115V32.2706Z" fill="#939393"/>
</svg>
