<svg width="250" height="76" viewBox="0 0 250 76" fill="none" xmlns="http://www.w3.org/2000/svg">
<g clip-path="url(#clip0_5_2)">
<path d="M69.9385 0V45.4594H82.1771V10.4911H115.396V22.724H82.9258L85.7689 29.356C86.7716 31.6968 89.0726 33.2132 91.6181 33.2132H115.28C121.139 33.2132 125.887 28.4652 125.887 22.6065V10.6067C125.887 4.74799 121.139 0 115.28 0L69.9385 0Z" fill="white"/>
<path d="M190.579 45.4594H208.036L212.827 40.2698C215.608 37.258 216.051 32.7678 213.915 29.2688L210.576 23.7987L190.579 45.4594Z" fill="white"/>
<path d="M250 0H232.543L220.29 13.2735L208.036 0H190.579L232.543 45.4594H250L229.02 22.7316L250 0Z" fill="white"/>
<path d="M185.335 0H132.881V34.8527C132.881 40.7114 137.629 45.4594 143.488 45.4594H185.335V34.9683H145.12V10.4911H185.335V0Z" fill="white"/>
<path d="M181.838 27.9762V17.4851H145.872L148.715 24.1171C149.718 26.458 152.019 27.9743 154.565 27.9743H181.838V27.9762Z" fill="white"/>
<path d="M66.4415 45.4594H29.6763C27.1308 45.4594 24.8298 43.9431 23.8271 41.6022L20.9821 34.9664H46.826L33.2226 9.72911L13.9578 45.4594H0L24.5095 0H35.6014C39.5021 0 43.0863 2.13991 44.9381 5.57438L66.4415 45.4594Z" fill="white"/>
<path d="M39.3922 62.9426C43.5431 62.9426 45.647 63.9396 45.647 69.1084C45.647 73.9019 43.7402 75.2381 39.3922 75.2381H33.9031V62.9426H39.3922ZM42.3319 69.1065C42.3319 65.8104 41.352 65.5791 38.9278 65.5791H37.1992V72.5997H38.9278C41.3691 72.5997 42.3319 72.1543 42.3319 69.1065Z" fill="white"/>
<path d="M51.3484 75.2362V62.9407H61.3277V65.5772H54.6464V67.7513H61.2576V70.3878H54.6464V72.5978H61.3277V75.2343H51.3484V75.2362Z" fill="white"/>
<path d="M71.5193 75.2362L66.2444 62.9407H69.9328L72.9977 71.2805L76.0796 62.9407H79.679L74.4041 75.2362H71.5174H71.5193Z" fill="white"/>
<path d="M84.7227 75.2362V62.9407H94.702V65.5772H88.0207V67.7513H94.6318V70.3878H88.0207V72.5978H94.702V75.2343H84.7227V75.2362Z" fill="white"/>
<path d="M100.456 75.2362V62.9407H103.752V72.3855H110.559V75.2362H100.456Z" fill="white"/>
<path d="M115.263 69.1065C115.263 63.9206 117.509 62.6735 121.874 62.6735C126.239 62.6735 128.503 63.9206 128.503 69.1065C128.503 74.2923 126.471 75.5035 121.874 75.5035C117.278 75.5035 115.263 74.0781 115.263 69.1065ZM125.189 69.1065C125.189 65.8634 124.388 65.4351 121.874 65.4351C119.361 65.4351 118.578 65.8445 118.578 69.1065C118.578 72.3685 119.363 72.7418 121.874 72.7418C124.386 72.7418 125.189 72.2434 125.189 69.1065Z" fill="white"/>
<path d="M141.244 72.5637H137.502V75.2362H134.206V62.9407H141.21C144.257 62.9407 145.539 64.241 145.539 67.5921C145.539 70.9431 144.149 72.5637 141.244 72.5637ZM137.502 69.9272H140.406C141.617 69.9272 142.224 69.3396 142.224 67.6811C142.224 66.0227 141.795 65.5791 140.37 65.5791H137.502V69.9272Z" fill="white"/>
<path d="M154.377 75.2362H151.081V62.9407H153.647L158.244 68.2498L162.787 62.9407H165.334V75.2362H162.038V67.9484L158.208 72.1353L154.377 67.9294V75.2343V75.2362Z" fill="white"/>
<path d="M171.216 75.2362V62.9407H181.195V65.5772H174.514V67.7513H181.125V70.3878H174.514V72.5978H181.195V75.2343H171.216V75.2362Z" fill="white"/>
<path d="M195.752 70.3195V62.9426H198.87V75.2381H196.358L190.05 68.0034V75.2381H186.949V62.9426H189.48L195.752 70.3195Z" fill="white"/>
<path d="M211.664 65.7933V75.2381H208.348V65.7933H204.053V62.9426H215.957V65.7933H211.662H211.664Z" fill="white"/>
</g>
<defs>
<clipPath id="clip0_5_2">
<rect width="250" height="75.5034" fill="white"/>
</clipPath>
</defs>
</svg>
