<svg width="221" height="67" viewBox="0 0 221 67" fill="none" xmlns="http://www.w3.org/2000/svg">
<g id="Layer_1">
<g id="Group">
<path id="Vector" d="M62.0337 0V40.1336H72.8385V9.26198H102.166V20.0618H73.4994L76.0095 25.9168C76.8947 27.9834 78.9261 29.3221 81.1734 29.3221H102.063C107.236 29.3221 111.428 25.1303 111.428 19.958V9.36405C111.428 4.19174 107.236 0 102.063 0L62.0337 0Z" fill="#FF6A00"/>
<g id="Group_2">
<path id="Vector_2" d="M168.541 40.1335H183.952L188.182 35.5519C190.637 32.8929 191.029 28.9288 189.143 25.8398L186.194 21.0105L168.541 40.1335Z" fill="#FF6A00"/>
<path id="Vector_3" d="M221 0H205.588L194.77 11.7185L183.952 0H168.541L205.588 40.1336H221L202.478 20.0685L221 0Z" fill="#FF6A00"/>
</g>
<g id="Group_3">
<path id="Vector_4" d="M163.91 0H117.602V30.7695C117.602 35.9418 121.794 40.1336 126.966 40.1336H163.91V30.8716H128.407V9.26198H163.91V0Z" fill="#FF6A00"/>
<path id="Vector_5" d="M160.823 24.6987V15.4368H129.071L131.581 21.2918C132.467 23.3584 134.498 24.6971 136.745 24.6971H160.823V24.6987Z" fill="#FF6A00"/>
</g>
<path id="Vector_6" d="M58.9463 40.1336H26.4884C24.2411 40.1336 22.2097 38.7949 21.3245 36.7283L18.8128 30.8699H41.6289L29.6193 8.58929L12.6113 40.1336H0.288818L21.9269 0H31.7193C35.1631 0 38.3274 1.88921 39.9622 4.92132L58.9463 40.1336Z" fill="#FF6A00"/>
</g>
<g id="Group_4">
<path id="Vector_7" d="M35.066 55.5684C38.7306 55.5684 40.588 56.4485 40.588 61.0118C40.588 65.2437 38.9047 66.4234 35.066 66.4234H30.22V55.5684H35.066ZM37.6614 61.0101C37.6614 58.1001 36.7962 57.896 34.656 57.896H33.1299V64.0941H34.656C36.8113 64.0941 37.6614 63.7008 37.6614 61.0101Z" fill="#FF6A00"/>
<path id="Vector_8" d="M45.6215 66.4217V55.5667H54.4317V57.8943H48.5331V59.8136H54.3697V62.1412H48.5331V64.0924H54.4317V66.42H45.6215V66.4217Z" fill="#FF6A00"/>
<path id="Vector_9" d="M63.4292 66.4217L58.7723 55.5667H62.0286L64.7344 62.9294L67.4553 55.5667H70.633L65.9761 66.4217H63.4276H63.4292Z" fill="#FF6A00"/>
<path id="Vector_10" d="M75.0858 66.4217V55.5667H83.8959V57.8943H77.9974V59.8136H83.834V62.1412H77.9974V64.0924H83.8959V66.42H75.0858V66.4217Z" fill="#FF6A00"/>
<path id="Vector_11" d="M88.9762 66.4217V55.5667H91.8862V63.9049H97.8952V66.4217H88.9762Z" fill="#FF6A00"/>
<path id="Vector_12" d="M102.048 61.0102C102.048 56.4319 104.031 55.3308 107.885 55.3308C111.739 55.3308 113.737 56.4319 113.737 61.0102C113.737 65.5884 111.943 66.6577 107.885 66.6577C103.827 66.6577 102.048 65.3993 102.048 61.0102ZM110.812 61.0102C110.812 58.1471 110.104 57.7689 107.885 57.7689C105.666 57.7689 104.975 58.1303 104.975 61.0102C104.975 63.89 105.668 64.2196 107.885 64.2196C110.102 64.2196 110.812 63.7795 110.812 61.0102Z" fill="#FF6A00"/>
<path id="Vector_13" d="M124.985 64.0622H121.682V66.4217H118.772V55.5667H124.955C127.646 55.5667 128.777 56.7146 128.777 59.673C128.777 62.6315 127.55 64.0622 124.985 64.0622ZM121.682 61.7346H124.245C125.315 61.7346 125.85 61.2159 125.85 59.7517C125.85 58.2875 125.472 57.8959 124.214 57.8959H121.682V61.7346Z" fill="#FF6A00"/>
<path id="Vector_14" d="M136.58 66.4217H133.67V55.5667H135.935L139.993 60.2537L144.004 55.5667H146.253V66.4217H143.343V59.9876L139.961 63.6841L136.58 59.9709V66.42V66.4217Z" fill="#FF6A00"/>
<path id="Vector_15" d="M151.446 66.4217V55.5667H160.256V57.8943H154.357V59.8136H160.194V62.1412H154.357V64.0924H160.256V66.42H151.446V66.4217Z" fill="#FF6A00"/>
<path id="Vector_16" d="M173.107 62.081V55.5684H175.86V66.4234H173.643L168.074 60.0362V66.4234H165.336V55.5684H167.57L173.107 62.081Z" fill="#FF6A00"/>
<path id="Vector_17" d="M187.155 58.0851V66.4234H184.228V58.0851H180.436V55.5684H190.945V58.0851H187.153H187.155Z" fill="#FF6A00"/>
</g>
</g>
</svg>
