<svg width="38" height="39" viewBox="0 0 38 39" fill="none" xmlns="http://www.w3.org/2000/svg">
<path id="Vector" d="M29.7469 0H8.25312C3.69576 0 -7.62939e-06 3.7979 -7.62939e-06 8.48121V30.5188C-7.62939e-06 35.2021 3.69576 39 8.25312 39H29.7469C34.3042 39 38 35.2021 38 30.5188V8.48121C38 3.7979 34.3042 0 29.7469 0ZM29.6994 10.2656C29.698 10.408 29.6796 10.5395 29.6677 10.7456C29.541 12.8608 25.7239 28.6381 25.7239 28.6381C25.7239 28.6381 25.4969 29.5629 24.6776 29.5941C24.2725 29.6076 23.878 29.4503 23.5877 29.1602C22.7248 28.3995 20.7285 26.9419 18.8733 25.6267C18.3139 26.1107 17.191 27.106 16.0365 28.2937C15.4916 28.8537 15.1499 29.0409 14.9401 29.0409C14.9269 29.0409 14.915 29.0409 14.9031 29.0395C14.8939 29.0381 14.8833 29.0368 14.8741 29.0341C14.8451 29.0273 14.816 29.0164 14.7883 29.0029C14.539 28.8483 14.6076 28.2937 14.6076 28.2937L15.105 22.8742C15.105 22.8647 15.105 22.8525 15.1076 22.843C15.1116 22.8267 15.1169 22.8132 15.1235 22.801C15.1446 22.744 15.1842 22.6979 15.1842 22.6979C15.1842 22.6979 24.8438 13.8737 25.1011 12.9476C25.1209 12.8757 25.0457 12.8405 24.9454 12.8716C24.3029 13.1143 13.1799 20.3332 11.9528 21.1291C11.8803 21.1522 11.8037 21.159 11.7272 21.1522C11.7114 21.1508 11.6956 21.1495 11.681 21.1468L6.28451 19.3393C6.28451 19.3393 5.6393 19.0709 5.84645 18.4607C5.88999 18.3346 5.97576 18.2288 6.23437 18.0444C7.42979 17.1875 28.3654 9.45475 28.3654 9.45475C28.3654 9.45475 28.9552 9.25001 29.3035 9.38696C29.4803 9.44119 29.6123 9.5917 29.6519 9.7761C29.6901 9.9361 29.706 10.1015 29.6994 10.2656Z" fill="#939393"/>
</svg>
